<svg width="24" height="24" viewBox="0 0 24 24" fill="none" xmlns="http://www.w3.org/2000/svg">
<rect x="2" y="4" width="20" height="16" rx="2.25" fill="url(#paint0_linear_2444_548)"/>
<path d="M10.0001 12.9954C10.0001 12.6183 10.5 12 11 12C11.5 12 12.1736 12 12.1736 12C12.2683 12 12.3591 11.974 12.4261 11.91C12.4931 11.846 13.1836 11.2 13.1836 11.2C13.3176 11.072 13.4993 11 13.6887 11H16.3113C16.5007 11 16.6824 11.072 16.8164 11.2C16.8164 11.2 17.507 11.846 17.574 11.91C17.641 11.974 17.7318 12 17.8265 12C17.8265 12 18.5417 12 19 12C19.5 12 20 12.6183 20 12.9954V17.3171C20 17.6942 19.6802 18 19.2857 18H10.7143C10.3198 18 10 17.6942 10 17.3171L10.0001 12.9954Z" fill="#102A4C"/>
<circle cx="15" cy="15" r="2" fill="url(#paint1_linear_2444_548)"/>
<circle cx="15" cy="15" r="1" fill="#142E50"/>
<path fill-rule="evenodd" clip-rule="evenodd" d="M4.57143 6C4.25584 6 4 6.25584 4 6.57143V8.42857C4 8.74416 4.18441 9 4.5 9C4.81559 9 5 8.74416 5 8.42857V7.5C5 7.22386 5.22386 7 5.5 7H7.42857C7.74416 7 8 6.81559 8 6.5C8 6.18441 7.74416 6 7.42857 6H4.57143ZM19.4286 6C19.7442 6 20 6.25584 20 6.57143V8.42857C20 8.74416 19.8156 9 19.5 9C19.1844 9 19 8.74416 19 8.42857V7.5C19 7.22386 18.7761 7 18.5 7H16.5714C16.2558 7 16 6.81559 16 6.5C16 6.18441 16.2558 6 16.5714 6H19.4286ZM4 17.4286C4 17.7442 4.25584 18 4.57143 18H7.42857C7.74416 18 8 17.8156 8 17.5C8 17.1844 7.74416 17 7.42857 17H5.5C5.22386 17 5 16.7761 5 16.5V15.5714C5 15.2558 4.81559 15 4.5 15C4.18441 15 4 15.2558 4 15.5714V17.4286ZM4 11.5C4 11.2239 4.22386 11 4.5 11C4.77614 11 5 11.2239 5 11.5V12.5C5 12.7761 4.77614 13 4.5 13C4.22386 13 4 12.7761 4 12.5V11.5ZM10 6.5C10 6.77614 10.2239 7 10.5 7H13.5C13.7761 7 14 6.77614 14 6.5C14 6.22386 13.7761 6 13.5 6H10.5C10.2239 6 10 6.22386 10 6.5Z" fill="url(#paint2_linear_2444_548)"/>
<defs>
<linearGradient id="paint0_linear_2444_548" x1="2" y1="20" x2="23.1832" y2="5.76017" gradientUnits="userSpaceOnUse">
<stop stop-color="#6582AA"/>
<stop offset="1" stop-color="#82A1CA"/>
</linearGradient>
<linearGradient id="paint1_linear_2444_548" x1="17" y1="13" x2="13" y2="17" gradientUnits="userSpaceOnUse">
<stop stop-color="#C9E0FF"/>
<stop offset="1" stop-color="#E4F0FF"/>
</linearGradient>
<linearGradient id="paint2_linear_2444_548" x1="20" y1="6" x2="4" y2="18" gradientUnits="userSpaceOnUse">
<stop stop-color="#EED2FF"/>
<stop offset="1" stop-color="#C9E0FF"/>
</linearGradient>
</defs>
</svg>
