<svg width="24" height="24" viewBox="0 0 24 24" fill="none" xmlns="http://www.w3.org/2000/svg">
<rect x="2" y="4" width="20" height="16" rx="2.25" fill="url(#paint0_linear_2197_938)"/>
<rect x="3" y="5" width="18" height="14" rx="1.5" fill="url(#paint1_linear_2197_938)"/>
<path d="M4.57143 6C4.25584 6 4 6.25584 4 6.57143V9.42857C4 9.74416 4.18441 10 4.5 10C4.81559 10 5 9.74416 5 9.42857V7.5C5 7.22386 5.22386 7 5.5 7H7.42857C7.74416 7 8 6.81559 8 6.5C8 6.18441 7.74416 6 7.42857 6H4.57143Z" fill="#001A1E"/>
<path d="M19.4286 6C19.7442 6 20 6.25584 20 6.57143V9.42857C20 9.74416 19.8156 10 19.5 10C19.1844 10 19 9.74416 19 9.42857V7.5C19 7.22386 18.7761 7 18.5 7H16.5714C16.2558 7 16 6.81559 16 6.5C16 6.18441 16.2558 6 16.5714 6H19.4286Z" fill="#001A1E"/>
<path d="M4.57143 18C4.25584 18 4 17.7442 4 17.4286V14.5714C4 14.2558 4.18441 14 4.5 14C4.81559 14 5 14.2558 5 14.5714V16.5C5 16.7761 5.22386 17 5.5 17H7.42857C7.74416 17 8 17.1844 8 17.5C8 17.8156 7.74416 18 7.42857 18H4.57143Z" fill="#001A1E"/>
<path d="M19.4286 18C19.7442 18 20 17.7442 20 17.4286V14.5714C20 14.2558 19.8156 14 19.5 14C19.1844 14 19 14.2558 19 14.5714V16.5C19 16.7761 18.7761 17 18.5 17H16.5714C16.2558 17 16 17.1844 16 17.5C16 17.8156 16.2558 18 16.5714 18H19.4286Z" fill="#001A1E"/>
<path d="M8 9.5C8 9.22386 8.22386 9 8.5 9H9.79289C9.9255 9 10.0527 8.94732 10.1464 8.85355L10.8536 8.14645C10.9473 8.05268 11.0745 8 11.2071 8H12.7929C12.9255 8 13.0527 8.05268 13.1464 8.14645L13.8536 8.85355C13.9473 8.94732 14.0745 9 14.2071 9H15.5C15.7761 9 16 9.22386 16 9.5V14.5C16 14.7761 15.7761 15 15.5 15H8.5C8.22386 15 8 14.7761 8 14.5V9.5Z" fill="#00353B"/>
<circle cx="12" cy="12" r="2" fill="#C9F9FF"/>
<circle cx="12" cy="12" r="1" fill="#00353B"/>
<defs>
<linearGradient id="paint0_linear_2197_938" x1="2" y1="20" x2="23.1832" y2="5.76017" gradientUnits="userSpaceOnUse">
<stop stop-color="#05919F"/>
<stop offset="1" stop-color="#3EB0BE"/>
</linearGradient>
<linearGradient id="paint1_linear_2197_938" x1="3" y1="19" x2="21.7271" y2="6.05156" gradientUnits="userSpaceOnUse">
<stop stop-color="#3EB0BE"/>
<stop offset="1" stop-color="#63D0DF"/>
</linearGradient>
</defs>
</svg>
