<svg width="64" height="64" viewBox="0 0 64 64" fill="none" xmlns="http://www.w3.org/2000/svg">
<rect x="2" y="10" width="60" height="44" rx="4" fill="url(#paint0_linear_2444_518)"/>
<path d="M26 32.6098C26 31.3705 27.0233 30.3659 28.2857 30.3659H32.9552C33.2583 30.3659 33.549 30.2476 33.7633 30.0372L36.1877 27.6572C36.6163 27.2364 37.1977 27 37.8039 27H46.1961C46.8023 27 47.3837 27.2364 47.8123 27.6572L50.2367 30.0372C50.451 30.2476 50.7417 30.3659 51.0448 30.3659H55.7143C56.9767 30.3659 58 31.3705 58 32.6098V47.7561C58 48.9954 56.9767 50 55.7143 50H28.2857C27.0234 50 26 48.9954 26 47.7561V32.6098Z" fill="#102A4C"/>
<path d="M50 40C50 44.4183 46.4183 48 42 48C37.5817 48 34 44.4183 34 40C34 35.5817 37.5817 32 42 32C46.4183 32 50 35.5817 50 40Z" fill="url(#paint1_linear_2444_518)"/>
<path d="M47 40C47 42.7614 44.7614 45 42 45C39.2386 45 37 42.7614 37 40C37 37.2386 39.2386 35 42 35C44.7614 35 47 37.2386 47 40Z" fill="#142E50"/>
<path d="M6.01033 15.7955C6.0035 15.8627 6 15.931 6 16V22C6 23.1046 6.89543 24 8 24C9.10457 24 10 23.1046 10 22V19.5C10 18.6716 10.6716 18 11.5 18H20C21.1046 18 22 17.1046 22 16C22 14.8954 21.1046 14 20 14H8C6.96447 14 6.11275 14.787 6.01033 15.7955Z" fill="url(#paint2_linear_2444_518)"/>
<path d="M8 50C6.89543 50 6 49.1046 6 48V42C6 40.8954 6.89543 40 8 40C9.10457 40 10 40.8954 10 42V44.5C10 45.3284 10.6716 46 11.5 46H20C21.1046 46 22 46.8954 22 48C22 49.1046 21.1046 50 20 50H8Z" fill="url(#paint3_linear_2444_518)"/>
<path d="M58 16C58 14.8954 57.1046 14 56 14H44C42.8954 14 42 14.8954 42 16C42 17.1046 42.8954 18 44 18H52.5C53.3284 18 54 18.6716 54 19.5V22C54 23.1046 54.8954 24 56 24C57.1046 24 58 23.1046 58 22V16Z" fill="url(#paint4_linear_2444_518)"/>
<path d="M6 29C6 27.8954 6.89543 27 8 27C9.10457 27 10 27.8954 10 29V35C10 36.1046 9.10457 37 8 37C6.89543 37 6 36.1046 6 35V29Z" fill="url(#paint5_linear_2444_518)"/>
<path d="M25 16C25 17.1046 25.8954 18 27 18H37C38.1046 18 39 17.1046 39 16C39 14.8954 38.1046 14 37 14H27C25.8954 14 25 14.8954 25 16Z" fill="url(#paint6_linear_2444_518)"/>
<defs>
<linearGradient id="paint0_linear_2444_518" x1="2" y1="54" x2="62" y2="10" gradientUnits="userSpaceOnUse">
<stop stop-color="#6582AA"/>
<stop offset="1" stop-color="#82A1CA"/>
</linearGradient>
<linearGradient id="paint1_linear_2444_518" x1="50" y1="32" x2="34" y2="48" gradientUnits="userSpaceOnUse">
<stop stop-color="#C9E0FF"/>
<stop offset="1" stop-color="#E4F0FF"/>
</linearGradient>
<linearGradient id="paint2_linear_2444_518" x1="58" y1="14" x2="6" y2="50" gradientUnits="userSpaceOnUse">
<stop stop-color="#EED2FF"/>
<stop offset="1" stop-color="#C9E0FF"/>
</linearGradient>
<linearGradient id="paint3_linear_2444_518" x1="58" y1="14" x2="6" y2="50" gradientUnits="userSpaceOnUse">
<stop stop-color="#EED2FF"/>
<stop offset="1" stop-color="#C9E0FF"/>
</linearGradient>
<linearGradient id="paint4_linear_2444_518" x1="58" y1="14" x2="6" y2="50" gradientUnits="userSpaceOnUse">
<stop stop-color="#EED2FF"/>
<stop offset="1" stop-color="#C9E0FF"/>
</linearGradient>
<linearGradient id="paint5_linear_2444_518" x1="58" y1="14" x2="6" y2="50" gradientUnits="userSpaceOnUse">
<stop stop-color="#EED2FF"/>
<stop offset="1" stop-color="#C9E0FF"/>
</linearGradient>
<linearGradient id="paint6_linear_2444_518" x1="58" y1="14" x2="6" y2="50" gradientUnits="userSpaceOnUse">
<stop stop-color="#EED2FF"/>
<stop offset="1" stop-color="#C9E0FF"/>
</linearGradient>
</defs>
</svg>
