<svg width="64" height="64" viewBox="0 0 64 64" fill="none" xmlns="http://www.w3.org/2000/svg">
<rect x="2" y="10" width="60" height="44" rx="4" fill="url(#paint0_linear_2197_941)"/>
<rect x="4" y="12" width="56" height="40" rx="3" fill="url(#paint1_linear_2197_941)"/>
<path d="M6.01033 15.7955C6.0035 15.8627 6 15.931 6 16V26C6 27.1046 6.89543 28 8 28C9.10457 28 10 27.1046 10 26V20C10 18.8954 10.8954 18 12 18H18C19.1046 18 20 17.1046 20 16C20 14.8954 19.1046 14 18 14H8C6.96447 14 6.11275 14.787 6.01033 15.7955Z" fill="#001A1E"/>
<path d="M8 50C6.89543 50 6 49.1046 6 48V38C6 36.8954 6.89543 36 8 36C9.10457 36 10 36.8954 10 38V44C10 45.1046 10.8954 46 12 46H18C19.1046 46 20 46.8954 20 48C20 49.1046 19.1046 50 18 50H8Z" fill="#001A1E"/>
<path d="M56 14C57.1046 14 58 14.8954 58 16V26C58 27.1046 57.1046 28 56 28C54.8954 28 54 27.1046 54 26V20C54 18.8954 53.1046 18 52 18H46C44.8954 18 44 17.1046 44 16C44 14.8954 44.8954 14 46 14H56Z" fill="#001A1E"/>
<path d="M56 50C57.1046 50 58 49.1046 58 48V38C58 36.8954 57.1046 36 56 36C54.8954 36 54 36.8954 54 38V44C54 45.1046 53.1046 46 52 46H46C44.8954 46 44 46.8954 44 48C44 49.1046 44.8954 50 46 50H56Z" fill="#001A1E"/>
<path d="M20 26C20 24.8954 20.8954 24 22 24H25.1716C25.702 24 26.2107 23.7893 26.5858 23.4142L27.4142 22.5858C27.7893 22.2107 28.298 22 28.8284 22H35.1716C35.702 22 36.2107 22.2107 36.5858 22.5858L37.4142 23.4142C37.7893 23.7893 38.298 24 38.8284 24H42C43.1046 24 44 24.8954 44 26V38C44 39.1046 43.1046 40 42 40H22C20.8954 40 20 39.1046 20 38V26Z" fill="#00353B"/>
<circle cx="32" cy="32" r="6" fill="#C9F9FF"/>
<circle cx="32" cy="32" r="4" fill="#00353B"/>
<defs>
<linearGradient id="paint0_linear_2197_941" x1="2" y1="54" x2="62" y2="10" gradientUnits="userSpaceOnUse">
<stop stop-color="#05919F"/>
<stop offset="1" stop-color="#3EB0BE"/>
</linearGradient>
<linearGradient id="paint1_linear_2197_941" x1="4" y1="52" x2="58.9612" y2="10.6203" gradientUnits="userSpaceOnUse">
<stop stop-color="#3EB0BE"/>
<stop offset="1" stop-color="#63D0DF"/>
</linearGradient>
</defs>
</svg>
