<svg width="32" height="32" viewBox="0 0 32 32" fill="none" xmlns="http://www.w3.org/2000/svg">
<rect x="2" y="6" width="28" height="20" rx="3" fill="url(#paint0_linear_2197_939)"/>
<rect x="3" y="7" width="26" height="18" rx="2.5" fill="url(#paint1_linear_2197_939)"/>
<path d="M4.85714 24C4.38376 24 4 23.6162 4 23.1429V18.8571C4 18.3838 4.52661 18 5 18C5.47339 18 6 18.3838 6 18.8571V21C6 21.5523 6.44771 22 7 22H9.14286C9.61624 22 10 22.5266 10 23C10 23.4734 9.61624 24 9.14286 24H4.85714Z" fill="#001A1E"/>
<path d="M27.1429 24C27.6162 24 28 23.6162 28 23.1429V18.8571C28 18.3838 27.5144 18 27 18C26.4856 18 26 18.3838 26 18.8571V21C26 21.5523 25.5523 22 25 22H22.8571C22.3838 22 22 22.4856 22 23C22 23.5144 22.3838 24 22.8571 24H27.1429Z" fill="#001A1E"/>
<path d="M27.1429 8C27.6162 8 28 8.38376 28 8.85714V13.1429C28 13.6162 27.5144 14 27 14C26.4856 14 26 13.6162 26 13.1429V11C26 10.4477 25.5523 10 25 10H22.8571C22.3838 10 22 9.51435 22 9C22 8.48565 22.3838 8 22.8571 8H27.1429Z" fill="#001A1E"/>
<path d="M4.85714 8C4.38376 8 4 8.38376 4 8.85714V13.1429C4 13.6162 4.42661 14 4.9 14C5.37339 14 6 13.6162 6 13.1429V11C6 10.4477 6.44771 10 7 10H9.14286C9.61624 10 10 9.37339 10 8.9C10 8.42661 9.61624 8 9.14286 8H4.85714Z" fill="#001A1E"/>
<path d="M10 13.2857C10 12.7334 10.4477 12.2857 11 12.2857H12.5109C12.8195 12.2857 13.1108 12.1432 13.3003 11.8997L13.6997 11.3861C13.8892 11.1425 14.1805 11 14.4891 11H17.5109C17.8195 11 18.1108 11.1425 18.3003 11.3861L18.6997 11.8997C18.8892 12.1432 19.1805 12.2857 19.4891 12.2857H21C21.5523 12.2857 22 12.7334 22 13.2857V19C22 19.5523 21.5523 20 21 20H11C10.4477 20 10 19.5523 10 19V13.2857Z" fill="#00353B"/>
<circle cx="16" cy="16" r="3" fill="#C9F9FF"/>
<circle cx="16" cy="16" r="2" fill="#00353B"/>
<defs>
<linearGradient id="paint0_linear_2197_939" x1="2" y1="26" x2="29.4806" y2="5.31015" gradientUnits="userSpaceOnUse">
<stop stop-color="#05919F"/>
<stop offset="1" stop-color="#3EB0BE"/>
</linearGradient>
<linearGradient id="paint1_linear_2197_939" x1="3" y1="25" x2="27.9359" y2="5.63007" gradientUnits="userSpaceOnUse">
<stop stop-color="#3EB0BE"/>
<stop offset="1" stop-color="#63D0DF"/>
</linearGradient>
</defs>
</svg>
