<svg width="32" height="32" viewBox="0 0 32 32" fill="none" xmlns="http://www.w3.org/2000/svg">
<rect x="2" y="6" width="28" height="20" rx="3" fill="url(#paint0_linear_2444_538)"/>
<path d="M14.0001 17C14.0001 16.4612 14.4478 16 15.0001 16H17.043C17.1756 16 17.3028 15.9415 17.3965 15.85C17.3965 15.85 18.2696 14.4687 18.4571 14.2857C18.6446 14.1028 18.899 14 19.1642 14H22.8358C23.101 14 23.3554 14.1028 23.5429 14.2857C23.7304 14.4687 24.6036 15.85 24.6036 15.85C24.6974 15.9415 24.8245 16 24.9571 16H27C27.5523 16 28 16.4612 28 17V23.0244C28 23.5632 27.5523 24 27 24H15C14.4477 24 14 23.5632 14 23.0244L14.0001 17Z" fill="#102A4C"/>
<circle cx="21" cy="20" r="3" fill="url(#paint1_linear_2444_538)"/>
<circle cx="21" cy="20" r="2" fill="#142E50"/>
<path d="M27.1429 8C27.6162 8 28 8.38376 28 8.85714V11.1429C28 11.6162 27.5144 12 27 12C26.4856 12 26 11.6162 26 11.1429V10.3C26 10.1343 25.8657 10 25.7 10H22.8571C22.3838 10 22 9.51435 22 9C22 8.48565 22.3838 8 22.8571 8H27.1429Z" fill="url(#paint2_linear_2444_538)"/>
<path d="M4.85714 24C4.38376 24 4 23.6162 4 23.1429V20.8571C4 20.3838 4.52661 20 5 20C5.47339 20 6 20.3838 6 20.8571V21.7C6 21.8657 6.13431 22 6.3 22H9.14286C9.61624 22 10 22.5266 10 23C10 23.4734 9.61624 24 9.14286 24H4.85714Z" fill="url(#paint3_linear_2444_538)"/>
<path d="M4 8.85714C4 8.38376 4.38376 8 4.85714 8H9.14286C9.61624 8 10 8.52661 10 9C10 9.47339 9.61624 10 9.14286 10H6.3C6.13431 10 6 10.1343 6 10.3V11.1429C6 11.6162 5.47339 12 5 12C4.52661 12 4 11.6162 4 11.1429V8.85714Z" fill="url(#paint4_linear_2444_538)"/>
<path d="M4 15C4 14.4477 4.44772 14 5 14C5.55228 14 6 14.4477 6 15V17C6 17.5523 5.55228 18 5 18C4.44772 18 4 17.5523 4 17V15Z" fill="url(#paint5_linear_2444_538)"/>
<path d="M12 9C12 9.55228 12.4477 10 13 10H19C19.5523 10 20 9.55228 20 9C20 8.44772 19.5523 8 19 8H13C12.4477 8 12 8.44772 12 9Z" fill="url(#paint6_linear_2444_538)"/>
<defs>
<linearGradient id="paint0_linear_2444_538" x1="2" y1="26" x2="29.4806" y2="5.31015" gradientUnits="userSpaceOnUse">
<stop stop-color="#6582AA"/>
<stop offset="1" stop-color="#82A1CA"/>
</linearGradient>
<linearGradient id="paint1_linear_2444_538" x1="24" y1="17" x2="18" y2="23" gradientUnits="userSpaceOnUse">
<stop stop-color="#C9E0FF"/>
<stop offset="1" stop-color="#E4F0FF"/>
</linearGradient>
<linearGradient id="paint2_linear_2444_538" x1="28" y1="8" x2="4" y2="24" gradientUnits="userSpaceOnUse">
<stop stop-color="#EED2FF"/>
<stop offset="1" stop-color="#C9E0FF"/>
</linearGradient>
<linearGradient id="paint3_linear_2444_538" x1="28" y1="8" x2="4" y2="24" gradientUnits="userSpaceOnUse">
<stop stop-color="#EED2FF"/>
<stop offset="1" stop-color="#C9E0FF"/>
</linearGradient>
<linearGradient id="paint4_linear_2444_538" x1="28" y1="8" x2="4" y2="24" gradientUnits="userSpaceOnUse">
<stop stop-color="#EED2FF"/>
<stop offset="1" stop-color="#C9E0FF"/>
</linearGradient>
<linearGradient id="paint5_linear_2444_538" x1="28" y1="8" x2="4" y2="24" gradientUnits="userSpaceOnUse">
<stop stop-color="#EED2FF"/>
<stop offset="1" stop-color="#C9E0FF"/>
</linearGradient>
<linearGradient id="paint6_linear_2444_538" x1="28" y1="8" x2="4" y2="24" gradientUnits="userSpaceOnUse">
<stop stop-color="#EED2FF"/>
<stop offset="1" stop-color="#C9E0FF"/>
</linearGradient>
</defs>
</svg>
