<svg width="16" height="16" viewBox="0 0 16 16" fill="none" xmlns="http://www.w3.org/2000/svg">
<rect x="1" y="3" width="14" height="10" rx="1.5" fill="url(#paint0_linear_2197_937)"/>
<rect x="2" y="4" width="12" height="8" rx="1" fill="url(#paint1_linear_2197_937)"/>
<path d="M3.5 9C3.22386 9 3 9.22386 3 9.5V10.3333C3 10.7015 3.29848 11 3.66667 11H6.5C6.77614 11 7 10.7761 7 10.5C7 10.2239 6.77614 10 6.5 10H4.5C4.22386 10 4 9.77614 4 9.5C4 9.22386 3.77614 9 3.5 9Z" fill="#001A1E"/>
<path d="M12.5 9C12.7761 9 13 9.22386 13 9.5V10.3333C13 10.7015 12.7015 11 12.3333 11H9.5C9.22386 11 9 10.7761 9 10.5C9 10.2239 9.22386 10 9.5 10H11.5C11.7761 10 12 9.77614 12 9.5C12 9.22386 12.2239 9 12.5 9Z" fill="#001A1E"/>
<path d="M3.5 7C3.22386 7 3 6.77614 3 6.5V5.66667C3 5.29848 3.29848 5 3.66667 5C3.66667 5 6.22386 5 6.5 5C6.77614 5 7 5.22386 7 5.5C7 5.77614 6.77614 6 6.5 6H4.5C4.22386 6 4 6.22386 4 6.5C4 6.77614 3.77614 7 3.5 7Z" fill="#001A1E"/>
<path d="M12.5 7C12.7761 7 13 6.77614 13 6.5V5.66667C13 5.29848 12.7015 5 12.3333 5H9.5C9.22386 5 9 5.22386 9 5.5C9 5.77614 9.22386 6 9.5 6H11.5C11.7761 6 12 6.22386 12 6.5C12 6.77614 12.2239 7 12.5 7Z" fill="#001A1E"/>
<defs>
<linearGradient id="paint0_linear_2197_937" x1="1" y1="13" x2="14.7403" y2="2.65507" gradientUnits="userSpaceOnUse">
<stop stop-color="#05919F"/>
<stop offset="1" stop-color="#3EB0BE"/>
</linearGradient>
<linearGradient id="paint1_linear_2197_937" x1="2" y1="12" x2="13.179" y2="2.98226" gradientUnits="userSpaceOnUse">
<stop stop-color="#3EB0BE"/>
<stop offset="1" stop-color="#63D0DF"/>
</linearGradient>
</defs>
</svg>
