<svg width="16" height="16" viewBox="0 0 16 16" fill="none" xmlns="http://www.w3.org/2000/svg">
<rect x="1" y="3" width="14" height="10" rx="1.5" fill="url(#paint0_linear_2444_558)"/>
<path d="M3.5 7C3.22386 7 3 6.77614 3 6.5V5.66667C3 5.29848 3.29848 5 3.66667 5H6.5C6.77614 5 7 5.22386 7 5.5C7 5.77614 6.77614 6 6.5 6H4.5C4.22386 6 4 6.22386 4 6.5C4 6.77614 3.77614 7 3.5 7Z" fill="url(#paint1_linear_2444_558)"/>
<path d="M3 9.5C3 9.22386 3.22386 9 3.5 9C3.77614 9 4 9.22386 4 9.5C4 9.77614 4.22386 10 4.5 10H6.5C6.77614 10 7 10.2239 7 10.5C7 10.7761 6.77614 11 6.5 11H3.66667C3.29848 11 3 10.7015 3 10.3333V9.5Z" fill="url(#paint2_linear_2444_558)"/>
<path d="M13 9.5C13 9.22386 12.7761 9 12.5 9C12.2239 9 12 9.22386 12 9.5C12 9.77614 11.7761 10 11.5 10H9.5C9.22386 10 9 10.2239 9 10.5C9 10.7761 9.22386 11 9.5 11H12.3333C12.7015 11 13 10.7015 13 10.3333V9.5Z" fill="url(#paint3_linear_2444_558)"/>
<path d="M13 6.5C13 6.77614 12.7761 7 12.5 7C12.2239 7 12 6.77614 12 6.5C12 6.22386 11.7761 6 11.5 6H9.5C9.22386 6 9 5.77614 9 5.5C9 5.22386 9.22386 5 9.5 5H12.3333C12.7015 5 13 5.29848 13 5.66667V6.5Z" fill="url(#paint4_linear_2444_558)"/>
<defs>
<linearGradient id="paint0_linear_2444_558" x1="1" y1="13" x2="14.7403" y2="2.65507" gradientUnits="userSpaceOnUse">
<stop stop-color="#6582AA"/>
<stop offset="1" stop-color="#82A1CA"/>
</linearGradient>
<linearGradient id="paint1_linear_2444_558" x1="3" y1="11" x2="13" y2="5" gradientUnits="userSpaceOnUse">
<stop stop-color="#C9E0FF"/>
<stop offset="1" stop-color="#EED2FF"/>
</linearGradient>
<linearGradient id="paint2_linear_2444_558" x1="3" y1="11" x2="13" y2="5" gradientUnits="userSpaceOnUse">
<stop stop-color="#C9E0FF"/>
<stop offset="1" stop-color="#EED2FF"/>
</linearGradient>
<linearGradient id="paint3_linear_2444_558" x1="3" y1="11" x2="13" y2="5" gradientUnits="userSpaceOnUse">
<stop stop-color="#C9E0FF"/>
<stop offset="1" stop-color="#EED2FF"/>
</linearGradient>
<linearGradient id="paint4_linear_2444_558" x1="3" y1="11" x2="13" y2="5" gradientUnits="userSpaceOnUse">
<stop stop-color="#C9E0FF"/>
<stop offset="1" stop-color="#EED2FF"/>
</linearGradient>
</defs>
</svg>
