<svg width="128" height="128" viewBox="0 0 128 128" fill="none" xmlns="http://www.w3.org/2000/svg">
<rect x="4" y="20" width="120" height="88" rx="8" fill="url(#paint0_linear_2444_508)"/>
<path d="M52 66C52 62.6863 54.6863 60 58 60H66.0166C66.5542 60 67.0691 59.7836 67.4453 59.3996L71.9497 54.8013C73.0783 53.6492 74.6231 53 76.2359 53H91.7641C93.3769 53 94.9217 53.6492 96.0503 54.8013L100.555 59.3996C100.931 59.7836 101.446 60 101.983 60H110C113.314 60 116 62.6863 116 66V94C116 97.3137 113.314 100 110 100H58C54.6863 100 52 97.3137 52 94V66Z" fill="#102A4C"/>
<path d="M100 80C100 88.8366 92.8366 96 84 96C75.1634 96 68 88.8366 68 80C68 71.1634 75.1634 64 84 64C92.8366 64 100 71.1634 100 80Z" fill="url(#paint1_linear_2444_508)"/>
<path d="M94 80C94 85.5228 89.5228 90 84 90C78.4772 90 74 85.5228 74 80C74 74.4772 78.4772 70 84 70C89.5228 70 94 74.4772 94 80Z" fill="#142E50"/>
<path d="M12.0207 31.591C12.007 31.7255 12 31.8619 12 32V44C12 46.2091 13.7909 48 16 48C18.2091 48 20 46.2091 20 44V39C20 37.3431 21.3431 36 23 36H42C44.2091 36 46 34.2091 46 32C46 29.7909 44.2091 28 42 28H16C13.9289 28 12.2255 29.574 12.0207 31.591Z" fill="url(#paint2_linear_2444_508)"/>
<path d="M16 100C13.7909 100 12 98.2091 12 96V84C12 81.7909 13.7909 80 16 80C18.2091 80 20 81.7909 20 84V89C20 90.6569 21.3431 92 23 92H36C38.2091 92 40 93.7909 40 96C40 98.2091 38.2091 100 36 100H16Z" fill="url(#paint3_linear_2444_508)"/>
<path d="M116 32C116 29.7909 114.209 28 112 28H86C83.7909 28 82 29.7909 82 32C82 34.2091 83.7909 36 86 36H105C106.657 36 108 37.3431 108 39V44C108 46.2091 109.791 48 112 48C114.209 48 116 46.2091 116 44V32Z" fill="url(#paint4_linear_2444_508)"/>
<path d="M12 58C12 55.7909 13.7909 54 16 54C18.2091 54 20 55.7909 20 58V70C20 72.2091 18.2091 74 16 74C13.7909 74 12 72.2091 12 70V58Z" fill="url(#paint5_linear_2444_508)"/>
<path d="M52 32C52 34.2091 53.7909 36 56 36H72C74.2091 36 76 34.2091 76 32C76 29.7909 74.2091 28 72 28H56C53.7909 28 52 29.7909 52 32Z" fill="url(#paint6_linear_2444_508)"/>
<defs>
<linearGradient id="paint0_linear_2444_508" x1="4" y1="108" x2="124" y2="20" gradientUnits="userSpaceOnUse">
<stop stop-color="#6582AA"/>
<stop offset="1" stop-color="#82A1CA"/>
</linearGradient>
<linearGradient id="paint1_linear_2444_508" x1="100" y1="64" x2="68" y2="96" gradientUnits="userSpaceOnUse">
<stop stop-color="#C9E0FF"/>
<stop offset="1" stop-color="#E4F0FF"/>
</linearGradient>
<linearGradient id="paint2_linear_2444_508" x1="116" y1="28" x2="12" y2="100" gradientUnits="userSpaceOnUse">
<stop stop-color="#EED2FF"/>
<stop offset="1" stop-color="#C9E0FF"/>
</linearGradient>
<linearGradient id="paint3_linear_2444_508" x1="116" y1="28" x2="12" y2="100" gradientUnits="userSpaceOnUse">
<stop stop-color="#EED2FF"/>
<stop offset="1" stop-color="#C9E0FF"/>
</linearGradient>
<linearGradient id="paint4_linear_2444_508" x1="116" y1="28" x2="12" y2="100" gradientUnits="userSpaceOnUse">
<stop stop-color="#EED2FF"/>
<stop offset="1" stop-color="#C9E0FF"/>
</linearGradient>
<linearGradient id="paint5_linear_2444_508" x1="116" y1="28" x2="12" y2="100" gradientUnits="userSpaceOnUse">
<stop stop-color="#EED2FF"/>
<stop offset="1" stop-color="#C9E0FF"/>
</linearGradient>
<linearGradient id="paint6_linear_2444_508" x1="116" y1="28" x2="12" y2="100" gradientUnits="userSpaceOnUse">
<stop stop-color="#EED2FF"/>
<stop offset="1" stop-color="#C9E0FF"/>
</linearGradient>
</defs>
</svg>
