<svg width="128" height="128" viewBox="0 0 128 128" fill="none" xmlns="http://www.w3.org/2000/svg">
<rect x="4" y="20" width="120" height="88" rx="8" fill="url(#paint0_linear_2197_942)"/>
<rect x="8" y="24" width="112" height="80" rx="6" fill="url(#paint1_linear_2197_942)"/>
<path d="M12.0207 31.591C12.007 31.7255 12 31.8619 12 32V52C12 54.2091 13.7909 56 16 56C18.2091 56 20 54.2091 20 52V40C20 37.7909 21.7909 36 24 36H36C38.2091 36 40 34.2091 40 32C40 29.7909 38.2091 28 36 28H16C13.9289 28 12.2255 29.574 12.0207 31.591Z" fill="#001A1E"/>
<path d="M16 100C13.7909 100 12 98.2091 12 96V76C12 73.7909 13.7909 72 16 72C18.2091 72 20 73.7909 20 76V88C20 90.2091 21.7909 92 24 92H36C38.2091 92 40 93.7909 40 96C40 98.2091 38.2091 100 36 100H16Z" fill="#001A1E"/>
<path d="M112 28C114.209 28 116 29.7909 116 32V52C116 54.2091 114.209 56 112 56C109.791 56 108 54.2091 108 52V40C108 37.7909 106.209 36 104 36H92C89.7909 36 88 34.2091 88 32C88 29.7909 89.7909 28 92 28H112Z" fill="#001A1E"/>
<path d="M112 100C114.209 100 116 98.2091 116 96V76C116 73.7909 114.209 72 112 72C109.791 72 108 73.7909 108 76V88C108 90.2091 106.209 92 104 92H92C89.7909 92 88 93.7909 88 96C88 98.2091 89.7909 100 92 100H112Z" fill="#001A1E"/>
<path d="M40 52C40 49.7909 41.7909 48 44 48H50.3431C51.404 48 52.4214 47.5786 53.1716 46.8284L54.8284 45.1716C55.5786 44.4214 56.596 44 57.6569 44H70.3431C71.404 44 72.4214 44.4214 73.1716 45.1716L74.8284 46.8284C75.5786 47.5786 76.596 48 77.6569 48H84C86.2091 48 88 49.7909 88 52V76C88 78.2091 86.2091 80 84 80H44C41.7909 80 40 78.2091 40 76V52Z" fill="#00353B"/>
<ellipse cx="63.5" cy="64" rx="12.5" ry="12" fill="#C9F9FF"/>
<ellipse cx="63.5" cy="64" rx="8.5" ry="8" fill="#00353B"/>
<defs>
<linearGradient id="paint0_linear_2197_942" x1="4" y1="108" x2="124" y2="20" gradientUnits="userSpaceOnUse">
<stop stop-color="#05919F"/>
<stop offset="1" stop-color="#3EB0BE"/>
</linearGradient>
<linearGradient id="paint1_linear_2197_942" x1="8" y1="104" x2="117.922" y2="21.2406" gradientUnits="userSpaceOnUse">
<stop stop-color="#3EB0BE"/>
<stop offset="1" stop-color="#63D0DF"/>
</linearGradient>
</defs>
</svg>
