<svg width="48" height="48" viewBox="0 0 48 48" fill="none" xmlns="http://www.w3.org/2000/svg">
<rect x="2" y="8" width="44" height="32" rx="3.5" fill="url(#paint0_linear_2197_940)"/>
<rect x="3" y="9" width="42" height="30" rx="3" fill="url(#paint1_linear_2197_940)"/>
<path d="M6.42857 38C5.63959 38 5 37.3604 5 36.5714V29.4286C5 28.6396 5.71102 28 6.5 28C7.28898 28 8 28.6396 8 29.4286V33.5C8 34.3284 8.67157 35 9.5 35H13.5714C14.3604 35 15 35.711 15 36.5C15 37.289 14.3604 38 13.5714 38H6.42857Z" fill="#001A1E"/>
<path d="M41.5714 38C42.3604 38 43 37.3604 43 36.5714V29.4286C43 28.6396 42.289 28 41.5 28C40.711 28 40 28.6396 40 29.4286V33.5C40 34.3284 39.3284 35 38.5 35H34.4286C33.6396 35 33 35.711 33 36.5C33 37.289 33.6396 38 34.4286 38H41.5714Z" fill="#001A1E"/>
<path d="M41.5714 11C42.3604 11 43 11.6396 43 12.4286V19.5714C43 20.3604 42.289 21 41.5 21C40.711 21 40 20.3604 40 19.5714V15.5C40 14.6716 39.3284 14 38.5 14H34.4286C33.6396 14 33 13.289 33 12.5C33 11.711 33.6396 11 34.4286 11H41.5714Z" fill="#001A1E"/>
<path d="M6.42857 11C5.63959 11 5 11.6396 5 12.4286V19.5714C5 20.3604 5.71102 21 6.5 21C7.28898 21 8 20.3604 8 19.5714V15.5C8 14.6716 8.67157 14 9.5 14H13.5714C14.3604 14 15 13.289 15 12.5C15 11.711 14.3604 11 13.5714 11H6.42857Z" fill="#001A1E"/>
<path d="M15 19.5C15 18.6716 15.6716 18 16.5 18H18.75C19.2221 18 19.6667 17.7777 19.95 17.4L20.55 16.6C20.8333 16.2223 21.2779 16 21.75 16H26.25C26.7221 16 27.1667 16.2223 27.45 16.6L28.05 17.4C28.3333 17.7777 28.7779 18 29.25 18H31.5C32.3284 18 33 18.6716 33 19.5V28.5C33 29.3284 32.3284 30 31.5 30H16.5C15.6716 30 15 29.3284 15 28.5V19.5Z" fill="#00353B"/>
<circle cx="24" cy="24" r="5" fill="#C9F9FF"/>
<circle cx="24" cy="24" r="3" fill="#00353B"/>
<defs>
<linearGradient id="paint0_linear_2197_940" x1="2" y1="40" x2="45.744" y2="7.65376" gradientUnits="userSpaceOnUse">
<stop stop-color="#05919F"/>
<stop offset="1" stop-color="#3EB0BE"/>
</linearGradient>
<linearGradient id="paint1_linear_2197_940" x1="3" y1="39" x2="44.2209" y2="7.96522" gradientUnits="userSpaceOnUse">
<stop stop-color="#3EB0BE"/>
<stop offset="1" stop-color="#63D0DF"/>
</linearGradient>
</defs>
</svg>
