<svg width="256" height="256" viewBox="0 0 256 256" fill="none" xmlns="http://www.w3.org/2000/svg">
<rect x="8" y="40" width="240" height="176" rx="16" fill="url(#paint0_linear_2197_943)"/>
<rect x="16" y="48" width="224" height="160" rx="12" fill="url(#paint1_linear_2197_943)"/>
<path d="M24.0413 63.182C24.014 63.451 24 63.7239 24 64V104C24 108.418 27.5817 112 32 112C36.4183 112 40 108.418 40 104V76C40 73.7909 41.7909 72 44 72H72C76.4183 72 80 68.4183 80 64C80 59.5817 76.4183 56 72 56H32C27.8579 56 24.451 59.148 24.0413 63.182Z" fill="#001A1E"/>
<path d="M32 200C27.5817 200 24 196.418 24 192V152C24 147.582 27.5817 144 32 144C36.4183 144 40 147.582 40 152V180C40 182.209 41.7909 184 44 184H72C76.4183 184 80 187.582 80 192C80 196.418 76.4183 200 72 200H32Z" fill="#001A1E"/>
<path d="M224 56C228.418 56 232 59.5817 232 64V104C232 108.418 228.418 112 224 112C219.582 112 216 108.418 216 104V76C216 73.7909 214.209 72 212 72H184C179.582 72 176 68.4183 176 64C176 59.5817 179.582 56 184 56H224Z" fill="#001A1E"/>
<path d="M224 200C228.418 200 232 196.418 232 192V152C232 147.582 228.418 144 224 144C219.582 144 216 147.582 216 152V180C216 182.209 214.209 184 212 184H184C179.582 184 176 187.582 176 192C176 196.418 179.582 200 184 200H224Z" fill="#001A1E"/>
<path d="M80 104C80 99.5817 83.5817 96 88 96H102.343C103.404 96 104.421 95.5786 105.172 94.8284L109.657 90.3431C111.157 88.8429 113.192 88 115.314 88H140.686C142.808 88 144.843 88.8429 146.343 90.3431L150.828 94.8284C151.579 95.5786 152.596 96 153.657 96H168C172.418 96 176 99.5817 176 104V152C176 156.418 172.418 160 168 160H88C83.5817 160 80 156.418 80 152V104Z" fill="#00353B"/>
<circle cx="128" cy="128" r="24" fill="#C9F9FF"/>
<circle cx="128" cy="128" r="16" fill="#00353B"/>
<defs>
<linearGradient id="paint0_linear_2197_943" x1="8" y1="216" x2="248" y2="40" gradientUnits="userSpaceOnUse">
<stop stop-color="#05919F"/>
<stop offset="1" stop-color="#3EB0BE"/>
</linearGradient>
<linearGradient id="paint1_linear_2197_943" x1="16" y1="208" x2="235.845" y2="42.4812" gradientUnits="userSpaceOnUse">
<stop stop-color="#3EB0BE"/>
<stop offset="1" stop-color="#63D0DF"/>
</linearGradient>
</defs>
</svg>
