<svg width="256" height="256" viewBox="0 0 256 256" fill="none" xmlns="http://www.w3.org/2000/svg">
<rect x="8" y="40" width="240" height="176" rx="16" fill="url(#paint0_linear_2444_566)"/>
<path d="M120 138C120 133.582 123.582 130 128 130H144.343C145.404 130 146.421 129.579 147.172 128.828L155.657 120.343C157.157 118.843 159.192 118 161.314 118H190.686C192.808 118 194.843 118.843 196.343 120.343L204.828 128.828C205.579 129.579 206.596 130 207.657 130H224C228.418 130 232 133.582 232 138V192C232 196.418 228.418 200 224 200H128C123.582 200 120 196.418 120 192V138Z" fill="#102A4C"/>
<path d="M204 165C204 180.464 191.464 193 176 193C160.536 193 148 180.464 148 165C148 149.536 160.536 137 176 137C191.464 137 204 149.536 204 165Z" fill="url(#paint1_linear_2444_566)"/>
<path d="M194 165C194 174.941 185.941 183 176 183C166.059 183 158 174.941 158 165C158 155.059 166.059 147 176 147C185.941 147 194 155.059 194 165Z" fill="#142E50"/>
<path fill-rule="evenodd" clip-rule="evenodd" d="M24.0413 63.182C24.014 63.451 24 63.7239 24 64V88C24 92.4183 27.5817 96 32 96C36.4183 96 40 92.4183 40 88V76C40 73.7909 41.7909 72 44 72H80C84.4183 72 88 68.4183 88 64C88 59.5817 84.4183 56 80 56H32C27.8579 56 24.451 59.148 24.0413 63.182ZM32 200C27.5817 200 24 196.418 24 192V168C24 163.582 27.5817 160 32 160C36.4183 160 40 163.582 40 168V180C40 182.209 41.7909 184 44 184H80C84.4183 184 88 187.582 88 192C88 196.418 84.4183 200 80 200H32ZM232 64C232 59.5817 228.418 56 224 56H176C171.582 56 168 59.5817 168 64C168 68.4183 171.582 72 176 72H212C214.209 72 216 73.7909 216 76V88C216 92.4183 219.582 96 224 96C228.418 96 232 92.4183 232 88V64ZM100 64C100 59.5817 103.582 56 108 56H148C152.418 56 156 59.5817 156 64C156 68.4183 152.418 72 148 72H108C103.582 72 100 68.4183 100 64ZM24 140C24 144.418 27.5817 148 32 148C36.4183 148 40 144.418 40 140V116C40 111.582 36.4183 108 32 108C27.5817 108 24 111.582 24 116V140Z" fill="url(#paint2_linear_2444_566)"/>
<defs>
<linearGradient id="paint0_linear_2444_566" x1="8" y1="216" x2="248" y2="40" gradientUnits="userSpaceOnUse">
<stop stop-color="#6582AA"/>
<stop offset="1" stop-color="#82A1CA"/>
</linearGradient>
<linearGradient id="paint1_linear_2444_566" x1="204" y1="137" x2="148" y2="193" gradientUnits="userSpaceOnUse">
<stop stop-color="#C9E0FF"/>
<stop offset="1" stop-color="#E4F0FF"/>
</linearGradient>
<linearGradient id="paint2_linear_2444_566" x1="24" y1="200" x2="232" y2="56" gradientUnits="userSpaceOnUse">
<stop stop-color="#C9E0FF"/>
<stop offset="1" stop-color="#EED2FF"/>
</linearGradient>
</defs>
</svg>
